# xmcd
#
# Track frame offsets:
# 150
# 16771
# 32447
# 49439
# 65310
# 80234
# 95415
# 107386
# 125508
# 141693
# 154525
# 168558
# 182551
# 200771
# 215682
# 233240
# 246342
# 266624
# 283910
# 302974
#
# Disc length: 4171 seconds
#
#
# Revision: 0
# Processed by: cddbd v1.5.1PL0 Copyright (c) Steve Scherf et al.
# Submitted via: FreeRIP 2.943 
#
DISCID=2b104914
DTITLE=Sérgio Reis - As 20 +
DYEAR=2004
DGENRE=Sertanejo
TTITLE0=O Rodeio
TTITLE1=Escolta de Vagalumes
TTITLE2=Vida Vioileira
TTITLE3=Pela Estrada
TTITLE4=Como Vai Você
TTITLE5=Menino da Porteira
TTITLE6=Fui Pra Casa da Vizinha
TTITLE7=Boiadeiro Errante
TTITLE8=Baile do Cowboy
TTITLE9=Chalana
TTITLE10=Outra Vez
TTITLE11=Rio de Piracicaba
TTITLE12=Prece do Peão
TTITLE13=Panela Velha
TTITLE14=Tocando em Frente
TTITLE15=Sertão Querido
TTITLE16=Pinga Ni Mim
TTITLE17=Filho Adotivo
TTITLE18=Serafim e Seus Filhos
TTITLE19=Adeus Mariana
EXTD=
EXTT0=
EXTT1=
EXTT2=
EXTT3=
EXTT4=
EXTT5=
EXTT6=
EXTT7=
EXTT8=
EXTT9=
EXTT10=
EXTT11=
EXTT12=
EXTT13=
EXTT14=
EXTT15=
EXTT16=
EXTT17=
EXTT18=
EXTT19=
PLAYORDER=
